# xmcd CD database file
#
# Track frame offsets:
#	150
#	25750
#	55160
#	80892
#	99300
#	130275
#	171427
#	193665
#	208117
#	225947
#	254217
#	285622
#
# Disc length: 4245 seconds
#
# Revision: 0
# Processed by: cddbd v1.5.1PL0 Copyright (c) Steve Scherf et al.
# Submitted via: CDex 1.51
#
DISCID=ad10930c
DTITLE=Omnibus - Jazz Sax on Bluenote
DYEAR=1900
DGENRE=Jazz
TTITLE0=Remember
TTITLE1=Cheese cake
TTITLE2=Why don't I ?
TTITLE3=Dancing in the dark
TTITLE4=Cool blues
TTITLE5=Moment's notice
TTITLE6=True blue
TTITLE7=Loie
TTITLE8=God bless the child
TTITLE9=Serenity
TTITLE10=Appointment in Ghana
TTITLE11=Night dreamer
EXTD=
EXTT0=
EXTT1=
EXTT2=
EXTT3=
EXTT4=
EXTT5=
EXTT6=
EXTT7=
EXTT8=
EXTT9=
EXTT10=
EXTT11=
PLAYORDER=
